<svg width="70" height="70" viewBox="0 0 70 70" fill="none" xmlns="http://www.w3.org/2000/svg">
<path d="M35.0001 67.8125C53.122 67.8125 67.8126 53.1219 67.8126 35C67.8126 16.8782 53.122 2.18753 35.0001 2.18753C16.8783 2.18753 2.18763 16.8782 2.18763 35C2.18763 53.1219 16.8783 67.8125 35.0001 67.8125Z" fill="#E1E6E9" stroke="#0C1A22" stroke-opacity="0.3" stroke-width="1.08419"/>
<path d="M35.0001 20.4167L55.4167 29.1667L35.0001 37.9167L14.5834 29.1667L35.0001 20.4167Z" fill="#0C1A22"/>
<path d="M38.2813 32.0833H31.7188C29.1012 32.0833 26.9793 34.2053 26.9793 36.8229C26.9793 39.4405 29.1012 41.5625 31.7188 41.5625H38.2813C40.8989 41.5625 43.0209 39.4405 43.0209 36.8229C43.0209 34.2053 40.8989 32.0833 38.2813 32.0833Z" fill="#0C1A22"/>
<path d="M51.0417 31.3542V40.1042" stroke="#0C1A22" stroke-width="2.1875" stroke-linecap="round"/>
<path d="M51.0418 44.4792C52.2499 44.4792 53.2293 43.4998 53.2293 42.2917C53.2293 41.0836 52.2499 40.1042 51.0418 40.1042C49.8337 40.1042 48.8543 41.0836 48.8543 42.2917C48.8543 43.4998 49.8337 44.4792 51.0418 44.4792Z" fill="#0C1A22"/>
</svg>
