<svg width="70" height="70" viewBox="0 0 70 70" fill="none" xmlns="http://www.w3.org/2000/svg">
<path d="M35 67.8125C53.1219 67.8125 67.8125 53.1219 67.8125 35C67.8125 16.8782 53.1219 2.18752 35 2.18752C16.8782 2.18752 2.18751 16.8782 2.18751 35C2.18751 53.1219 16.8782 67.8125 35 67.8125Z" fill="#E6EFE8" stroke="#7EA88A" stroke-opacity="0.4" stroke-width="1.08419"/>
<path d="M45.9374 21.5104C45.9374 20.1009 44.7948 18.9583 43.3854 18.9583C41.9759 18.9583 40.8333 20.1009 40.8333 21.5104V45.5729C40.8333 46.9824 41.9759 48.125 43.3854 48.125C44.7948 48.125 45.9374 46.9824 45.9374 45.5729V21.5104Z" fill="#7EA88A"/>
<path d="M43.3854 37.9166H25.8854C24.4759 37.9166 23.3333 39.0593 23.3333 40.4687C23.3333 41.8782 24.4759 43.0208 25.8854 43.0208H43.3854C44.7949 43.0208 45.9375 41.8782 45.9375 40.4687C45.9375 39.0593 44.7949 37.9166 43.3854 37.9166Z" fill="#7EA88A"/>
<path d="M28.4375 42.6563C28.4375 41.6495 27.6213 40.8334 26.6145 40.8334C25.6078 40.8334 24.7916 41.6495 24.7916 42.6563V47.7604C24.7916 48.7672 25.6078 49.5834 26.6145 49.5834C27.6213 49.5834 28.4375 48.7672 28.4375 47.7604V42.6563Z" fill="#7EA88A"/>
<path d="M19.6875 51.7708C29.8958 56.1458 40.1041 55.6597 50.3125 50.3125" stroke="#7EA88A" stroke-width="2.1875" stroke-linecap="round"/>
</svg>
